<mxfile host="65bd71144e">
    <diagram id="zQtxzxvY0b_rhqpk5B7B" name="PÃ¡gina-1">
        <mxGraphModel dx="1252" dy="607" grid="1" gridSize="10" guides="1" tooltips="1" connect="1" arrows="1" fold="1" page="1" pageScale="1" pageWidth="827" pageHeight="1169" background="#ffffff" math="0" shadow="1">
            <root>
                <mxCell id="0"/>
                <mxCell id="1" parent="0"/>
                <mxCell id="2" value="Centro" style="whiteSpace=wrap;html=1;align=center;fillColor=#008a00;strokeColor=#005700;fontColor=#ffffff;" parent="1" vertex="1">
                    <mxGeometry x="90" y="200" width="100" height="40" as="geometry"/>
                </mxCell>
                <mxCell id="3" value="Socios" style="whiteSpace=wrap;html=1;align=center;fillColor=#008a00;strokeColor=#005700;fontColor=#ffffff;" parent="1" vertex="1">
                    <mxGeometry x="570" y="200" width="100" height="40" as="geometry"/>
                </mxCell>
                <mxCell id="8" value="" style="endArrow=none;html=1;exitX=0.5;exitY=0;exitDx=0;exitDy=0;fontColor=#1D3557;labelBackgroundColor=#F1FAEE;entryX=0;entryY=1;entryDx=0;entryDy=0;rounded=1;strokeWidth=5;strokeColor=#FFFF00;" parent="1" source="2" target="11" edge="1">
                    <mxGeometry relative="1" as="geometry">
                        <mxPoint x="90" y="220" as="sourcePoint"/>
                        <mxPoint x="151.57894736842104" y="205.78947368421052" as="targetPoint"/>
                    </mxGeometry>
                </mxCell>
                <mxCell id="10" value="" style="endArrow=none;html=1;exitX=0.5;exitY=0;exitDx=0;exitDy=0;fontColor=#1D3557;labelBackgroundColor=#F1FAEE;entryX=1;entryY=1;entryDx=0;entryDy=0;rounded=1;strokeWidth=5;strokeColor=#FFFF00;" parent="1" source="3" target="11" edge="1">
                    <mxGeometry relative="1" as="geometry">
                        <mxPoint x="150" y="250" as="sourcePoint"/>
                        <mxPoint x="210" y="205" as="targetPoint"/>
                    </mxGeometry>
                </mxCell>
                <mxCell id="13" value="" style="edgeStyle=none;orthogonalLoop=1;jettySize=auto;html=1;endArrow=none;fontColor=#1D3557;labelBackgroundColor=#F1FAEE;rounded=1;strokeWidth=5;strokeColor=#FFFF00;" parent="1" source="11" target="12" edge="1">
                    <mxGeometry relative="1" as="geometry"/>
                </mxCell>
                <mxCell id="11" value="Matricular" style="shape=rhombus;perimeter=rhombusPerimeter;whiteSpace=wrap;html=1;align=center;fillColor=#d80073;strokeColor=#A50040;fontColor=#ffffff;" parent="1" vertex="1">
                    <mxGeometry x="310" y="110" width="120" height="60" as="geometry"/>
                </mxCell>
                <mxCell id="12" value="Actividades" style="whiteSpace=wrap;html=1;fillColor=#008a00;strokeColor=#005700;fontColor=#ffffff;" parent="1" vertex="1">
                    <mxGeometry x="310" y="20" width="120" height="60" as="geometry"/>
                </mxCell>
                <mxCell id="14" value="Sala" style="shape=ext;margin=3;double=1;whiteSpace=wrap;html=1;align=center;fillColor=#60a917;strokeColor=#2D7600;fontColor=#ffffff;" parent="1" vertex="1">
                    <mxGeometry x="90" y="400" width="100" height="40" as="geometry"/>
                </mxCell>
                <mxCell id="17" value="" style="edgeStyle=none;orthogonalLoop=1;jettySize=auto;html=1;endArrow=none;fontColor=#1D3557;labelBackgroundColor=#F1FAEE;strokeWidth=5;rounded=1;strokeColor=#FFFF00;" parent="1" source="16" target="14" edge="1">
                    <mxGeometry relative="1" as="geometry"/>
                </mxCell>
                <mxCell id="16" value="Tienen" style="shape=rhombus;perimeter=rhombusPerimeter;whiteSpace=wrap;html=1;align=center;fillColor=#d80073;strokeColor=#A50040;fontColor=#ffffff;" parent="1" vertex="1">
                    <mxGeometry x="80" y="290" width="120" height="60" as="geometry"/>
                </mxCell>
                <mxCell id="20" value="" style="endArrow=none;html=1;exitX=0.5;exitY=1;exitDx=0;exitDy=0;entryX=0.5;entryY=0;entryDx=0;entryDy=0;fontColor=#1D3557;labelBackgroundColor=#F1FAEE;rounded=1;strokeWidth=5;strokeColor=#FFFF00;" parent="1" source="2" target="16" edge="1">
                    <mxGeometry relative="1" as="geometry">
                        <mxPoint x="290" y="250" as="sourcePoint"/>
                        <mxPoint x="220" y="215" as="targetPoint"/>
                    </mxGeometry>
                </mxCell>
                <mxCell id="21" value="" style="endArrow=none;html=1;entryX=1;entryY=0.5;entryDx=0;entryDy=0;exitX=0;exitY=0.5;exitDx=0;exitDy=0;fontColor=#1D3557;labelBackgroundColor=#F1FAEE;rounded=1;strokeWidth=5;strokeColor=#FFFF00;" parent="1" source="22" target="14" edge="1">
                    <mxGeometry relative="1" as="geometry">
                        <mxPoint x="230" y="420" as="sourcePoint"/>
                        <mxPoint x="230" y="225" as="targetPoint"/>
                    </mxGeometry>
                </mxCell>
                <mxCell id="22" value="Reservar" style="shape=rhombus;perimeter=rhombusPerimeter;whiteSpace=wrap;html=1;align=center;fillColor=#d80073;strokeColor=#A50040;fontColor=#ffffff;" parent="1" vertex="1">
                    <mxGeometry x="560" y="390" width="120" height="60" as="geometry"/>
                </mxCell>
                <mxCell id="23" value="" style="endArrow=none;html=1;entryX=0.5;entryY=1;entryDx=0;entryDy=0;fontColor=#1D3557;labelBackgroundColor=#F1FAEE;rounded=1;strokeWidth=5;strokeColor=#FFFF00;exitX=0.5;exitY=0;exitDx=0;exitDy=0;" parent="1" source="22" target="3" edge="1">
                    <mxGeometry relative="1" as="geometry">
                        <mxPoint x="240" y="350" as="sourcePoint"/>
                        <mxPoint x="240" y="235" as="targetPoint"/>
                    </mxGeometry>
                </mxCell>
                <mxCell id="28" value="Pertenecen" style="shape=rhombus;perimeter=rhombusPerimeter;whiteSpace=wrap;html=1;align=center;rounded=0;sketch=0;fontColor=#ffffff;strokeColor=#A50040;fillColor=#d80073;" parent="1" vertex="1">
                    <mxGeometry x="310" y="200" width="120" height="60" as="geometry"/>
                </mxCell>
                <mxCell id="31" value="" style="endArrow=none;html=1;exitX=1;exitY=0.5;exitDx=0;exitDy=0;fontColor=#1D3557;curved=1;labelBackgroundColor=#F1FAEE;entryX=0;entryY=0.5;entryDx=0;entryDy=0;strokeColor=#FFFF00;strokeWidth=5;" parent="1" source="2" target="28" edge="1">
                    <mxGeometry relative="1" as="geometry">
                        <mxPoint x="222.96000000000004" y="324.02" as="sourcePoint"/>
                        <mxPoint x="130" y="220" as="targetPoint"/>
                    </mxGeometry>
                </mxCell>
                <mxCell id="32" value="" style="endArrow=none;html=1;exitX=1;exitY=0.5;exitDx=0;exitDy=0;fontColor=#1D3557;curved=1;labelBackgroundColor=#F1FAEE;entryX=0;entryY=0.5;entryDx=0;entryDy=0;strokeColor=#FFFF00;strokeWidth=5;" parent="1" source="28" target="3" edge="1">
                    <mxGeometry relative="1" as="geometry">
                        <mxPoint x="120" y="230" as="sourcePoint"/>
                        <mxPoint x="147.5" y="225" as="targetPoint"/>
                    </mxGeometry>
                </mxCell>
                <mxCell id="36" value="&lt;font color=&quot;#000000&quot;&gt;(0,1)&lt;/font&gt;" style="text;html=1;align=center;verticalAlign=middle;resizable=0;points=[];autosize=1;strokeColor=none;" vertex="1" parent="1">
                    <mxGeometry x="35" y="170" width="40" height="20" as="geometry"/>
                </mxCell>
                <mxCell id="37" value="&lt;font color=&quot;#000000&quot;&gt;(1,N)&lt;/font&gt;" style="text;html=1;align=center;verticalAlign=middle;resizable=0;points=[];autosize=1;strokeColor=none;" vertex="1" parent="1">
                    <mxGeometry x="35" y="370" width="40" height="20" as="geometry"/>
                </mxCell>
                <mxCell id="38" value="&lt;font color=&quot;#000000&quot;&gt;1:N&lt;/font&gt;" style="text;html=1;align=center;verticalAlign=middle;resizable=0;points=[];autosize=1;strokeColor=none;" vertex="1" parent="1">
                    <mxGeometry x="40" y="310" width="30" height="20" as="geometry"/>
                </mxCell>
            </root>
        </mxGraphModel>
    </diagram>
</mxfile>